# xmcd CD database file
# Copyright (C) 1996 Ti Kan
#
# Track frame offsets:
#	182
#	14137
#	28790
#	46742
#	62580
#	80092
#	91590
#	108047
#	123737
#	139412
#
# Disc length: 2108 seconds
#
# Revision: 1
# Processed by: cddbd v1.4b41PL1 Copyright (c) Steve Scherf et al.
# Submitted via: EasyCD 2.21 - (C) 1996 Greg Leichner
#
DISCID=82083a0a
DTITLE=Paul Overstreet - Time
DYEAR=1900
DGENRE=
TTITLE0=We've got to keep on meeting like this
TTITLE1=I'm gonna Ring Her
TTITLE2=Even when it don't Feel Like It
TTITLE3=Let's Go To Bed Early
TTITLE4=You Gave Me Time
TTITLE5=I Always Will
TTITLE6=One In A Million
TTITLE7=Blackberry Cobbler
TTITLE8=Mr. Miller
TTITLE9=My Rock
EXTD=
EXTT0=
EXTT1=
EXTT2=
EXTT3=
EXTT4=
EXTT5=
EXTT6=
EXTT7=
EXTT8=
EXTT9=
PLAYORDER=
